<svg width="25" height="25" viewBox="0 0 25 25" fill="none" xmlns="http://www.w3.org/2000/svg">
<g clip-path="url(#clip0_739_237)">
<circle cx="12.5" cy="12.5" r="7.5" fill="#F1F0FF"/>
<path d="M25 12.5L22.1699 9.35783L22.613 5.15127L18.4747 4.27516L16.3637 0.608032L12.5 2.33475L8.63637 0.608032L6.5254 4.27516L2.38704 5.15127L2.83011 9.35783L0 12.5L2.83007 15.6422L2.387 19.8487L6.52535 20.7248L8.63632 24.3919L12.5 22.6652L16.3636 24.3919L18.4746 20.7248L22.613 19.8487L22.1698 15.6422L25 12.5ZM17.7403 9.76301L11.4658 16.7927L7.1057 12.4326L8.14275 11.3955L11.4052 14.658L16.6462 8.78638L17.7403 9.76301Z" fill="#665CD1"/>
</g>
<defs>
<clipPath id="clip0_739_237">
<rect width="25" height="25" fill="white"/>
</clipPath>
</defs>
</svg>
