<svg width="118" height="41" viewBox="0 0 118 41" fill="none" xmlns="http://www.w3.org/2000/svg">
<path d="M108.465 0.426888H9.54153C9.18095 0.426888 8.82468 0.426888 8.46505 0.428888C8.16401 0.430888 7.86536 0.436698 7.56142 0.441588C6.90113 0.44949 6.24239 0.508564 5.59093 0.618297C4.94038 0.730419 4.31021 0.941801 3.72174 1.24529C3.13398 1.55135 2.59693 1.94905 2.13007 2.42395C1.66076 2.89751 1.26955 3.44489 0.971493 4.04503C0.67261 4.64398 0.465364 5.2858 0.356912 5.94834C0.247429 6.61005 0.188515 7.27938 0.180699 7.95033C0.171574 8.25693 0.17061 8.56455 0.165802 8.87119V31.9853C0.17061 32.2958 0.171574 32.5966 0.180699 32.9072C0.188518 33.5782 0.247431 34.2475 0.356912 34.9091C0.465064 35.5721 0.672323 36.2143 0.971493 36.8134C1.26942 37.4116 1.66068 37.9568 2.13007 38.4277C2.59516 38.9047 3.13256 39.3027 3.72174 39.6064C4.31021 39.9107 4.94031 40.1234 5.59093 40.2372C6.2425 40.3461 6.90117 40.4052 7.56142 40.414C7.86536 40.4208 8.16401 40.4247 8.46505 40.4247C8.82467 40.4267 9.18096 40.4267 9.54153 40.4267H108.465C108.818 40.4267 109.177 40.4267 109.53 40.4247C109.83 40.4247 110.137 40.4208 110.437 40.414C111.096 40.4056 111.753 40.3465 112.404 40.2372C113.056 40.1226 113.689 39.91 114.28 39.6064C114.869 39.3025 115.406 38.9046 115.87 38.4277C116.338 37.9549 116.731 37.4102 117.032 36.8134C117.329 36.2138 117.534 35.5717 117.641 34.9091C117.751 34.2474 117.812 33.5782 117.823 32.9072C117.827 32.5966 117.827 32.2958 117.827 31.9853C117.835 31.622 117.835 31.2607 117.835 30.8916V9.96297C117.835 9.59677 117.835 9.23349 117.827 8.87119C117.827 8.56455 117.827 8.25693 117.823 7.95029C117.812 7.27928 117.751 6.6101 117.641 5.9483C117.534 5.28615 117.329 4.64437 117.032 4.04499C116.425 2.84207 115.463 1.86291 114.28 1.2452C113.689 0.942453 113.056 0.731127 112.404 0.618207C111.754 0.50799 111.096 0.448895 110.437 0.441448C110.137 0.436568 109.83 0.430708 109.53 0.428758C109.177 0.426758 108.818 0.426758 108.465 0.426758V0.426888Z" fill="#A6A6A6"/>
<path d="M8.46982 39.5513C8.17022 39.5513 7.87786 39.5474 7.58061 39.5406C6.96483 39.5325 6.35049 39.478 5.74263 39.3775C5.17583 39.2783 4.62675 39.0936 4.11351 38.8297C3.60497 38.5679 3.14114 38.2246 2.7398 37.8131C2.33264 37.4063 1.99366 36.9346 1.7363 36.4166C1.4761 35.8951 1.29603 35.3363 1.20235 34.7594C1.10119 34.1395 1.04646 33.5127 1.03863 32.8844C1.03239 32.6735 1.02423 31.9713 1.02423 31.9713V8.87082C1.02423 8.87082 1.03292 8.17941 1.03868 7.97628C1.04617 7.34897 1.10059 6.72314 1.20145 6.10422C1.29529 5.52575 1.47551 4.96525 1.73585 4.44213C1.99226 3.92445 2.32936 3.45236 2.73406 3.04419C3.13831 2.63213 3.60362 2.28711 4.11303 2.02172C4.62509 1.75861 5.17313 1.57525 5.73878 1.47778C6.34864 1.37635 6.96511 1.32151 7.58303 1.31372L8.4703 1.30151H109.526L110.423 1.31421C111.036 1.32161 111.647 1.37596 112.251 1.4768C112.822 1.57549 113.376 1.76013 113.894 2.02465C114.914 2.55949 115.745 3.40567 116.269 4.44457C116.525 4.96408 116.702 5.52 116.795 6.09348C116.897 6.71748 116.954 7.34823 116.966 7.98068C116.969 8.26388 116.969 8.56808 116.969 8.87082C116.977 9.24582 116.977 9.60275 116.977 9.96261V30.8912C116.977 31.2545 116.977 31.609 116.969 31.9664C116.969 32.2916 116.969 32.5895 116.965 32.8961C116.953 33.5172 116.897 34.1367 116.797 34.7496C116.705 35.3306 116.526 35.8939 116.266 36.4196C116.007 36.932 115.67 37.3996 115.267 37.8053C114.865 38.219 114.401 38.5643 113.891 38.8278C113.375 39.0937 112.822 39.2791 112.251 39.3775C111.643 39.4785 111.029 39.533 110.413 39.5406C110.125 39.5474 109.823 39.5513 109.53 39.5513L108.465 39.5533L8.46982 39.5513Z" fill="black"/>
<path d="M24.5219 20.7232C24.5324 19.8885 24.7504 19.0701 25.1556 18.3442C25.5607 17.6182 26.1399 17.0083 26.8391 16.5711C26.3949 15.926 25.8089 15.395 25.1276 15.0205C24.4464 14.6459 23.6886 14.4381 22.9145 14.4134C21.2633 14.2372 19.6624 15.4183 18.821 15.4183C17.9633 15.4183 16.6677 14.4309 15.2727 14.4601C14.3703 14.4898 13.4908 14.7566 12.72 15.2347C11.9492 15.7127 11.3133 16.3857 10.8743 17.188C8.97255 20.5364 10.3911 25.4574 12.2128 28.164C13.1243 29.4894 14.1895 30.9698 15.5833 30.9173C16.9472 30.8598 17.4566 30.0328 19.103 30.0328C20.7341 30.0328 21.2121 30.9173 22.6342 30.8839C24.0977 30.8598 25.0199 29.5527 25.8993 28.2148C26.5542 27.2704 27.0581 26.2267 27.3924 25.1223C26.5421 24.7566 25.8165 24.1444 25.306 23.3621C24.7956 22.5798 24.5228 21.662 24.5219 20.7232Z" fill="white"/>
<path d="M21.8357 12.6336C22.6337 11.6594 23.0269 10.4072 22.9317 9.14301C21.7125 9.27323 20.5863 9.86578 19.7775 10.8026C19.3821 11.2603 19.0792 11.7927 18.8863 12.3695C18.6933 12.9462 18.614 13.556 18.6529 14.164C19.2627 14.1704 19.866 14.036 20.4173 13.7709C20.9686 13.5058 21.4536 13.1169 21.8357 12.6336Z" fill="white"/>
<path d="M41.7629 27.564H37.1084L35.9907 30.9204H34.0192L38.4279 18.5025H40.4761L44.8848 30.9204H42.8797L41.7629 27.564ZM37.5905 26.0152H41.2799L39.4612 20.5679H39.4103L37.5905 26.0152Z" fill="white"/>
<path d="M54.4061 26.3947C54.4061 29.2081 52.9253 31.0157 50.6908 31.0157C50.1247 31.0458 49.5618 30.9132 49.0664 30.6331C48.571 30.353 48.1632 29.9366 47.8896 29.4317H47.8473V33.9161H46.0199V21.8673H47.7888V23.3732H47.8224C48.1085 22.8707 48.5232 22.4565 49.0224 22.1747C49.5215 21.8928 50.0865 21.7539 50.6572 21.7726C52.9167 21.7726 54.4061 23.589 54.4061 26.3947ZM52.5278 26.3947C52.5278 24.5617 51.5963 23.3566 50.1751 23.3566C48.7788 23.3566 47.8397 24.5871 47.8397 26.3947C47.8397 28.2189 48.7788 29.4406 50.1751 29.4406C51.5963 29.4406 52.5278 28.2443 52.5278 26.3947Z" fill="white"/>
<path d="M64.2047 26.3947C64.2047 29.2081 62.7239 31.0157 60.4894 31.0157C59.9233 31.0458 59.3603 30.9132 58.8649 30.6331C58.3696 30.353 57.9617 29.9366 57.6882 29.4317H57.6459V33.9161H55.8185V21.8673H57.5873V23.3732H57.621C57.9071 22.8707 58.3218 22.4565 58.8209 22.1747C59.3201 21.8928 59.8851 21.7539 60.4557 21.7726C62.7153 21.7726 64.2047 23.589 64.2047 26.3947ZM62.3264 26.3947C62.3264 24.5617 61.3949 23.3566 59.9737 23.3566C58.5774 23.3566 57.6383 24.587 57.6383 26.3947C57.6383 28.2189 58.5774 29.4405 59.9737 29.4405C61.3949 29.4405 62.3264 28.2443 62.3264 26.3947H62.3264Z" fill="white"/>
<path d="M70.6806 27.4606C70.816 28.692 71.9923 29.5006 73.5998 29.5006C75.1401 29.5006 76.2483 28.692 76.2483 27.5816C76.2483 26.6178 75.5799 26.0406 73.9974 25.6451L72.4148 25.2574C70.1726 24.7066 69.1316 23.6402 69.1316 21.9098C69.1316 19.7672 70.9677 18.2955 73.5749 18.2955C76.1551 18.2955 77.924 19.7672 77.9835 21.9098H76.1388C76.0284 20.6705 75.021 19.9225 73.5489 19.9225C72.0768 19.9225 71.0695 20.6793 71.0695 21.7809C71.0695 22.6588 71.7129 23.1754 73.2867 23.5709L74.6321 23.9068C77.1375 24.5093 78.1784 25.5328 78.1784 27.3492C78.1784 29.6724 76.3587 31.1275 73.4644 31.1275C70.7564 31.1275 68.928 29.7066 68.8099 27.4605L70.6806 27.4606Z" fill="white"/>
<path d="M82.1226 19.7256V21.8682H83.8156V23.3398H82.1226V28.331C82.1226 29.1064 82.4616 29.4677 83.2058 29.4677C83.4068 29.4642 83.6074 29.4498 83.8069 29.4247V30.8876C83.4723 30.9512 83.1322 30.98 82.7919 30.9736C80.9895 30.9736 80.2865 30.2851 80.2865 28.5292V23.3398H78.9921V21.8682H80.2865V19.7256H82.1226Z" fill="white"/>
<path d="M84.7961 26.3952C84.7961 23.5466 86.4458 21.7566 89.0184 21.7566C91.5997 21.7566 93.2417 23.5466 93.2417 26.3952C93.2417 29.2517 91.6083 31.0339 89.0184 31.0339C86.4294 31.0339 84.7961 29.2517 84.7961 26.3952ZM91.3797 26.3952C91.3797 24.4411 90.4992 23.2878 89.0184 23.2878C87.5376 23.2878 86.658 24.4499 86.658 26.3952C86.658 28.3571 87.5376 29.5017 89.0184 29.5017C90.4992 29.5017 91.3797 28.3571 91.3797 26.3952H91.3797Z" fill="white"/>
<path d="M94.7485 21.8672H96.4914V23.4082H96.5336C96.6516 22.927 96.9288 22.5016 97.3188 22.2037C97.7088 21.9059 98.1877 21.7536 98.6751 21.7725C98.8857 21.7718 99.0957 21.795 99.3012 21.8418V23.5801C99.0353 23.4975 98.758 23.4596 98.4801 23.4678C98.2146 23.4569 97.95 23.5045 97.7043 23.6074C97.4586 23.7102 97.2377 23.866 97.0568 24.0639C96.8759 24.2618 96.7393 24.4971 96.6562 24.7538C96.5732 25.0105 96.5458 25.2823 96.5759 25.5508V30.9209H94.7484L94.7485 21.8672Z" fill="white"/>
<path d="M107.727 28.2624C107.481 29.906 105.907 31.0339 103.893 31.0339C101.303 31.0339 99.6958 29.2692 99.6958 26.4382C99.6958 23.5984 101.312 21.7566 103.816 21.7566C106.279 21.7566 107.828 23.4773 107.828 26.2224V26.8591H101.54V26.9714C101.511 27.3046 101.552 27.6403 101.661 27.9561C101.769 28.2719 101.942 28.5607 102.169 28.8033C102.395 29.0458 102.67 29.2366 102.975 29.3629C103.279 29.4892 103.607 29.5482 103.935 29.5358C104.367 29.577 104.801 29.4753 105.171 29.2458C105.541 29.0164 105.829 28.6715 105.991 28.2624L107.727 28.2624ZM101.549 25.5603H106C106.016 25.2607 105.972 24.9609 105.869 24.6797C105.766 24.3985 105.607 24.1419 105.402 23.9262C105.197 23.7104 104.95 23.5401 104.677 23.4258C104.404 23.3116 104.111 23.256 103.816 23.2624C103.519 23.2606 103.224 23.3188 102.948 23.4335C102.673 23.5483 102.423 23.7173 102.212 23.931C102.001 24.1446 101.834 24.3986 101.72 24.6782C101.607 24.9579 101.548 25.2577 101.549 25.5603V25.5603Z" fill="white"/>
</svg>
