<svg width="25" height="26" viewBox="0 0 25 26" fill="none" xmlns="http://www.w3.org/2000/svg">
<path d="M13.7149 10.4835L21.7663 12.2141C22.486 12.3689 23 13.0051 23 13.7412V21.938C23 22.8007 22.3007 23.5 21.438 23.5H13.7149M13.7149 10.4835V5.51146C13.7149 4.82705 13.2161 4.24473 12.5399 4.13953L3.80207 2.78032C2.85509 2.63301 2 3.36537 2 4.32374V21.938C2 22.8007 2.69932 23.5 3.56198 23.5H5.29752M13.7149 10.4835V23.5M13.7149 23.5H9.89669M5.29752 23.5V19.0744C5.29752 18.4034 5.84144 17.8595 6.5124 17.8595H8.68182C9.35277 17.8595 9.89669 18.4034 9.89669 19.0744V23.5M5.29752 23.5H9.89669M9.02893 6.83884H11.1983M4.34298 6.83884H6.5124M9.02893 11H11.1983M4.34298 11H6.5124M9.02893 15.0826H11.1983M4.34298 15.0826H6.5124M17.3595 16H19.5289M17.3595 20H19.5289" stroke="#171717" stroke-width="1.3" stroke-linecap="round"/>
</svg>
