<svg width="21" height="21" viewBox="0 0 21 21" fill="none" xmlns="http://www.w3.org/2000/svg">
<g clip-path="url(#clip0_506_384)">
<path d="M14.6667 2.09344H6.33334C4.03215 2.09344 2.16667 3.95892 2.16667 6.26011V14.5934C2.16667 16.8946 4.03215 18.7601 6.33334 18.7601H14.6667C16.9679 18.7601 18.8333 16.8946 18.8333 14.5934V6.26011C18.8333 3.95892 16.9679 2.09344 14.6667 2.09344Z" stroke="#665CD1" stroke-width="1.33333" stroke-linecap="round" stroke-linejoin="round"/>
<path d="M13.8333 9.90176C13.9362 10.5953 13.8177 11.3036 13.4948 11.9259C13.1719 12.5483 12.661 13.0529 12.0347 13.3682C11.4084 13.6834 10.6987 13.7931 10.0065 13.6817C9.31428 13.5703 8.67481 13.2435 8.17904 12.7477C7.68327 12.252 7.35645 11.6125 7.24507 10.9203C7.13368 10.2281 7.2434 9.51834 7.55862 8.89208C7.87383 8.26581 8.3785 7.75488 9.00083 7.43197C9.62316 7.10905 10.3315 6.99059 11.025 7.09343C11.7324 7.19834 12.3874 7.52798 12.8931 8.03369C13.3988 8.53939 13.7284 9.19433 13.8333 9.90176Z" stroke="#665CD1" stroke-width="1.33333" stroke-linecap="round" stroke-linejoin="round"/>
<path d="M15.0833 5.84344H15.0917" stroke="#665CD1" stroke-width="1.33333" stroke-linecap="round" stroke-linejoin="round"/>
</g>
<defs>
<clipPath id="clip0_506_384">
<rect width="20" height="20" fill="white" transform="translate(0.5 0.426758)"/>
</clipPath>
</defs>
</svg>
