<svg width="127" height="28" viewBox="0 0 127 28" fill="none" xmlns="http://www.w3.org/2000/svg">
<path d="M18.093 27.0922C15.922 27.0922 13.7741 27.0922 11.6057 27.0922C11.6057 26.9982 11.6057 26.9147 11.6057 26.8312C11.6054 21.3737 11.6062 15.9162 11.6036 10.4588C11.6032 9.66294 11.5408 8.87232 11.2768 8.11357C11.0184 7.37076 10.5806 6.79216 9.77736 6.58182C9.25237 6.44436 8.72424 6.44762 8.20672 6.61525C7.43463 6.86534 7.03705 7.46152 6.79629 8.1901C6.57816 8.85023 6.50287 9.53505 6.50176 10.2247C6.4928 15.7476 6.4908 21.2705 6.48668 26.7934C6.48661 26.8849 6.48667 26.9764 6.48667 27.0849C4.32975 27.0849 2.18244 27.0849 0.0035248 27.0849C0.0035248 27.0197 0.00352918 26.9507 0.00352432 26.8816C0.00313503 21.3717 -0.00631331 15.8617 0.00744581 10.3518C0.0120393 8.51224 0.313681 6.71964 1.13605 5.05254C2.46214 2.36429 4.62141 0.768113 7.57031 0.260792C9.20402 -0.0202654 10.8114 0.104641 12.3584 0.737599C13.3222 1.13196 14.1441 1.72484 14.789 2.55093C14.8051 2.57159 14.8207 2.59265 14.8105 2.57923C15.2182 2.20733 15.594 1.8109 16.0228 1.4842C17.0343 0.713707 18.209 0.332555 19.4589 0.193362C21.5049 -0.0344733 23.4443 0.315611 25.2274 1.37218C27.1547 2.51416 28.3796 4.21396 29.0736 6.31894C29.4749 7.53585 29.6766 8.79042 29.6797 10.0684C29.6935 15.6896 29.6926 21.3109 29.6968 26.9321C29.6968 26.9774 29.6931 27.0227 29.6903 27.0858C27.5384 27.0858 25.3913 27.0858 23.2102 27.0858C23.2102 27.0063 23.2102 26.918 23.2102 26.8297C23.2098 21.3984 23.2114 15.9672 23.2068 10.5359C23.2061 9.78141 23.1687 9.02459 22.9304 8.30141C22.823 7.9755 22.6812 7.64804 22.49 7.36518C22.0017 6.64275 21.2621 6.43985 20.4389 6.5011C19.3185 6.58447 18.6484 7.2015 18.3309 8.39872C18.1549 9.06262 18.095 9.74046 18.0948 10.424C18.0929 15.8881 18.0933 21.3521 18.093 26.8162C18.093 26.9009 18.093 26.9857 18.093 27.0922Z" fill="#171717"/>
<path d="M61.4458 14.2371C61.4031 17.3232 60.0997 20.6279 57.3676 23.3234C55.4401 25.2251 53.1231 26.4159 50.4579 26.9038C47.5318 27.4395 44.7104 27.0895 42.0343 25.7803C39.3948 24.4891 37.4024 22.5143 36.0468 19.9076C34.9186 17.7382 34.4192 15.4189 34.5252 12.9821C34.6746 9.54741 35.9069 6.55068 38.3017 4.06741C40.4271 1.8635 43.026 0.556902 46.0591 0.138614C48.8205 -0.242217 51.4694 0.156622 53.9722 1.39776C56.559 2.68054 58.534 4.60757 59.8899 7.15711C60.9437 9.13837 61.452 11.2589 61.4458 14.2371ZM47.7629 21.6563C47.8059 21.538 47.8302 21.4789 47.849 21.4182C48.4411 19.5046 49.0339 17.5912 49.6215 15.6762C49.6622 15.5435 49.7238 15.4735 49.861 15.4317C51.0759 15.0618 52.2883 14.6837 53.5012 14.3073C54.2689 14.0691 55.0363 13.8296 55.8388 13.5798C55.74 13.5419 55.6757 13.5128 55.6088 13.492C53.6958 12.8981 51.7832 12.3029 49.868 11.7162C49.7218 11.6714 49.6619 11.5975 49.6195 11.4596C49.0316 9.54477 48.4381 7.63166 47.8455 5.71832C47.8274 5.65997 47.803 5.60358 47.7663 5.50558C47.7316 5.60233 47.7124 5.65033 47.6971 5.69956C47.1042 7.61303 46.5101 9.52617 45.9217 11.441C45.8752 11.5922 45.8064 11.6732 45.6461 11.7223C43.8368 12.2755 42.0305 12.8387 40.2235 13.3997C40.0569 13.4514 39.8911 13.506 39.685 13.5721C39.7841 13.6061 39.8385 13.6263 39.8938 13.6435C41.8008 14.2344 43.7071 14.8274 45.616 15.4117C45.7934 15.4659 45.877 15.5529 45.9301 15.7311C46.2103 16.6721 46.5061 17.6085 46.797 18.5463C47.113 19.5648 47.4295 20.5831 47.7629 21.6563Z" fill="#171717"/>
<path d="M114.511 5.75628C114.511 5.84864 114.511 5.93283 114.511 6.01703C114.511 9.60511 114.508 13.1932 114.513 16.7813C114.514 17.6104 114.592 18.4327 114.912 19.2101C115.49 20.6143 117.314 21.1019 118.494 20.1668C119.021 19.7492 119.27 19.1597 119.386 18.5259C119.489 17.9678 119.567 17.3961 119.568 16.8302C119.581 11.3858 119.575 5.94133 119.574 0.496895C119.574 0.39929 119.574 0.301686 119.574 0.189392C121.719 0.189392 123.848 0.189392 126.011 0.189392C126.011 0.251318 126.011 0.319803 126.011 0.388288C126.011 5.91144 126.021 11.4346 126.004 16.9577C125.998 18.8964 125.622 20.7647 124.669 22.4783C123.332 24.8841 121.28 26.3044 118.582 26.7847C116.963 27.0729 115.37 26.9595 113.829 26.3487C112.86 25.9645 112.035 25.3776 111.379 24.5615C111.355 24.5318 111.33 24.503 111.301 24.4686C111.104 24.6806 110.922 24.8957 110.721 25.0901C109.766 26.0121 108.606 26.5426 107.315 26.7656C104.743 27.2097 102.355 26.747 100.236 25.1766C98.5864 23.9536 97.5953 22.2782 97.0444 20.3242C96.7132 19.1495 96.5722 17.9472 96.5713 16.7296C96.5675 11.3049 96.5691 5.8801 96.5688 0.455336C96.5688 0.371257 96.5688 0.287179 96.5688 0.189727C98.7181 0.189727 100.852 0.189727 103.011 0.189727C103.011 0.278646 103.011 0.361817 103.011 0.444988C103.011 5.90911 103.009 11.3732 103.011 16.8373C103.011 17.5813 103.087 18.3164 103.334 19.0247C103.841 20.4815 105.446 21.0919 106.76 20.324C107.347 19.9807 107.638 19.4216 107.819 18.7957C108.007 18.1489 108.069 17.4839 108.069 16.8127C108.069 13.2181 108.069 9.62343 108.069 6.02879C108.069 5.94388 108.069 5.85898 108.069 5.75627C110.214 5.75628 112.347 5.75628 114.511 5.75628Z" fill="#171717"/>
<path d="M92.5243 13.251C92.4595 17.3801 91.1411 20.706 88.3685 23.405C86.4185 25.3033 84.0816 26.4859 81.3962 26.9428C78.1223 27.4997 75.016 26.9982 72.1594 25.2834C68.8145 23.2756 66.7379 20.3193 65.9127 16.5139C65.2301 13.3668 65.5636 10.3048 67.0309 7.42999C69.0457 3.48239 72.2616 1.03631 76.6326 0.267959C80.9984 -0.499467 84.8958 0.617271 88.1897 3.60864C90.5177 5.72285 91.8902 8.38155 92.3558 11.4946C92.4563 12.1668 92.4871 12.8495 92.5243 13.251ZM79.3473 6.29422C77.9433 6.3004 76.8839 6.54369 75.9018 7.06982C72.8334 8.71342 71.3335 12.0979 72.1635 15.4776C73.0277 18.9964 76.4459 21.3334 80.0042 20.8382C83.2151 20.3913 85.8423 17.6174 86.1339 14.3689C86.2949 12.5756 85.8757 10.9266 84.8451 9.45573C83.4429 7.45482 81.5176 6.37602 79.3473 6.29422Z" fill="#171717"/>
</svg>
