<svg width="21" height="21" viewBox="0 0 21 21" fill="none" xmlns="http://www.w3.org/2000/svg">
<g clip-path="url(#clip0_506_359)">
<g clip-path="url(#clip1_506_359)">
<path d="M17.75 8.76007C17.75 14.5934 10.25 19.5934 10.25 19.5934C10.25 19.5934 2.75 14.5934 2.75 8.76007C2.75 6.77095 3.54018 4.86329 4.9467 3.45677C6.35322 2.05025 8.26088 1.26007 10.25 1.26007C12.2391 1.26007 14.1468 2.05025 15.5533 3.45677C16.9598 4.86329 17.75 6.77095 17.75 8.76007Z" stroke="#665CD1" stroke-width="1.33333" stroke-linecap="round" stroke-linejoin="round"/>
<path d="M10.25 11.2601C11.6307 11.2601 12.75 10.1408 12.75 8.76007C12.75 7.37936 11.6307 6.26007 10.25 6.26007C8.86929 6.26007 7.75 7.37936 7.75 8.76007C7.75 10.1408 8.86929 11.2601 10.25 11.2601Z" stroke="#665CD1" stroke-width="1.33333" stroke-linecap="round" stroke-linejoin="round"/>
</g>
</g>
<defs>
<clipPath id="clip0_506_359">
<rect width="20" height="20" fill="white" transform="translate(0.25 0.426758)"/>
</clipPath>
<clipPath id="clip1_506_359">
<rect width="20" height="20" fill="white" transform="translate(0.25 0.426758)"/>
</clipPath>
</defs>
</svg>
