<svg width="21" height="21" viewBox="0 0 21 21" fill="none" xmlns="http://www.w3.org/2000/svg">
<g clip-path="url(#clip0_506_370)">
<path d="M6.61859 11.6888L4.18337 10.1391C4.14332 10.1137 4.14905 10.0535 4.1932 10.036L14.571 5.93051C14.6135 5.91371 14.6579 5.95019 14.6496 5.9951L13.0543 14.6553C13.0474 14.6927 13.0071 14.7135 12.9726 14.6975L9.82175 13.2346C9.79962 13.2243 9.77342 13.229 9.75616 13.2462L8.37252 14.6299C8.33589 14.6665 8.27327 14.6406 8.27327 14.5888V12.4283C8.27327 12.4125 8.27972 12.3973 8.29114 12.3864L10.9304 9.85273C10.9777 9.8073 10.9253 9.73051 10.8657 9.758L6.67417 11.6926C6.65621 11.7009 6.63527 11.6994 6.61859 11.6888Z" stroke="#665CD1" stroke-width="1.33333" stroke-linecap="round"/>
<circle cx="10.25" cy="10.4268" r="9.33333" stroke="#665CD1" stroke-width="1.33333"/>
</g>
<defs>
<clipPath id="clip0_506_370">
<rect width="20" height="20" fill="white" transform="translate(0.25 0.426758)"/>
</clipPath>
</defs>
</svg>
