<svg width="20" height="21" viewBox="0 0 20 21" fill="none" xmlns="http://www.w3.org/2000/svg">
<path d="M20 10.9165C19.9682 13.1903 19.0004 15.6252 16.9717 17.6112C15.5404 19.0123 13.82 19.8897 11.841 20.2492C9.66822 20.6439 7.57325 20.386 5.58612 19.4214C3.62621 18.47 2.14674 17.015 1.14017 15.0944C0.302461 13.496 -0.0683971 11.7872 0.0103272 9.99184C0.121296 7.46118 1.03626 5.25322 2.8145 3.42358C4.39271 1.79976 6.32251 0.837077 8.57468 0.528887C10.6252 0.248295 12.5921 0.542155 14.4505 1.45662C16.3713 2.40175 17.8378 3.82156 18.8446 5.70003C19.6271 7.15981 20.0045 8.72218 20 10.9165ZM9.83981 16.3829C9.87177 16.2957 9.88984 16.2522 9.9038 16.2075C10.3434 14.7975 10.7836 13.3878 11.2199 11.9768C11.2502 11.879 11.2959 11.8275 11.3978 11.7967C12.2999 11.5241 13.2001 11.2455 14.1007 10.9682C14.6708 10.7927 15.2406 10.6163 15.8365 10.4322C15.7632 10.4042 15.7154 10.3828 15.6657 10.3675C14.2453 9.92994 12.8251 9.49143 11.403 9.0591C11.2944 9.0261 11.2499 8.97166 11.2185 8.87004C10.7819 7.45924 10.3412 6.04968 9.90113 4.63995C9.88771 4.59696 9.86959 4.55542 9.84233 4.48321C9.81661 4.55449 9.80231 4.58985 9.79098 4.62613C9.35069 6.03595 8.90962 7.44553 8.47267 8.85637C8.43818 8.96776 8.38708 9.02746 8.26802 9.06358C6.92453 9.47119 5.5833 9.88619 4.24157 10.2995C4.11782 10.3376 3.99473 10.3778 3.84168 10.4265C3.91526 10.4516 3.95565 10.4665 3.99676 10.4791C5.41272 10.9145 6.82822 11.3514 8.2457 11.7819C8.37739 11.8219 8.43952 11.886 8.47891 12.0172C8.68696 12.7106 8.90659 13.4005 9.12262 14.0915C9.35723 14.8419 9.5923 15.5922 9.83981 16.3829Z" fill="#171717"/>
</svg>
