<svg width="21" height="21" viewBox="0 0 21 21" fill="none" xmlns="http://www.w3.org/2000/svg">
<g clip-path="url(#clip0_506_390)">
<path d="M19.2833 5.77674C19.1843 5.38125 18.9827 5.01888 18.6989 4.72624C18.415 4.4336 18.059 4.22106 17.6667 4.11007C16.2333 3.76007 10.5 3.76007 10.5 3.76007C10.5 3.76007 4.76667 3.76007 3.33333 4.1434C2.94104 4.25439 2.58498 4.46694 2.30112 4.75958C2.01726 5.05221 1.81566 5.41458 1.71666 5.81007C1.45434 7.2647 1.32603 8.74033 1.33333 10.2184C1.32398 11.7076 1.4523 13.1945 1.71666 14.6601C1.8258 15.0433 2.03192 15.3919 2.31512 15.6721C2.59832 15.9524 2.94902 16.1549 3.33333 16.2601C4.76667 16.6434 10.5 16.6434 10.5 16.6434C10.5 16.6434 16.2333 16.6434 17.6667 16.2601C18.059 16.1491 18.415 15.9365 18.6989 15.6439C18.9827 15.3513 19.1843 14.9889 19.2833 14.5934C19.5436 13.1497 19.6719 11.6853 19.6667 10.2184C19.676 8.7292 19.5477 7.24232 19.2833 5.77674V5.77674Z" stroke="#665CD1" stroke-width="1.33333" stroke-linecap="round" stroke-linejoin="round"/>
<path d="M8.625 12.9434L13.4167 10.2184L8.625 7.49341V12.9434Z" stroke="#665CD1" stroke-width="1.33333" stroke-linecap="round" stroke-linejoin="round"/>
</g>
<defs>
<clipPath id="clip0_506_390">
<rect width="20" height="20" fill="white" transform="translate(0.5 0.426758)"/>
</clipPath>
</defs>
</svg>
